<?xml version="1.0" standalone="no"?>
<!DOCTYPE svg PUBLIC "-//W3C//DTD SVG 20010904//EN"
 "http://www.w3.org/TR/2001/REC-SVG-20010904/DTD/svg10.dtd">
<svg version="1.0" xmlns="http://www.w3.org/2000/svg"
 width="512.000000pt" height="512.000000pt" viewBox="0 0 512.000000 512.000000"
 preserveAspectRatio="xMidYMid meet">
<metadata>
Created by potrace 1.14, written by Peter Selinger 2001-2017
</metadata>
<g transform="translate(0.000000,512.000000) scale(0.100000,-0.100000)"
fill="#000000" stroke="none">
<path d="M986 5054 c-9 -8 -16 -25 -16 -37 0 -13 63 -103 146 -212 81 -104
153 -206 161 -225 13 -30 13 -47 3 -122 -13 -90 -8 -246 10 -293 15 -40 69
-44 89 -6 6 10 5 53 -1 106 -8 65 -8 111 1 165 24 160 17 178 -165 415 -181
236 -192 246 -228 209z"/>
<path d="M1976 5054 c-9 -8 -16 -24 -16 -34 0 -10 165 -209 366 -442 201 -233
375 -436 385 -453 44 -68 43 -92 0 -304 -23 -109 -41 -200 -41 -204 0 -4 -71
-6 -157 -5 l-157 3 -12 75 c-20 127 -51 179 -134 224 -42 23 -69 29 -162 36
-122 9 -146 4 -183 -36 -32 -35 -32 -55 5 -334 36 -267 37 -302 10 -345 -51
-82 -181 -83 -234 -2 -8 12 -29 85 -46 162 -35 160 -86 365 -101 412 -11 34
-37 48 -69 38 -32 -10 -33 -46 -6 -144 18 -67 22 -93 13 -96 -7 -3 -103 -6
-214 -7 l-203 -3 -37 -38 -38 -37 -5 -368 -5 -367 -315 -5 c-210 -3 -324 -9
-341 -17 -42 -19 -98 -73 -122 -117 l-22 -41 0 -1020 c0 -961 1 -1022 18
-1056 42 -85 121 -136 222 -146 l65 -6 0 -113 0 -114 -134 0 c-109 0 -138 -3
-150 -16 -20 -20 -20 -48 0 -68 14 -14 249 -16 2434 -16 2185 0 2420 2 2434
16 20 20 20 48 0 68 -14 14 -91 16 -705 16 l-689 0 0 114 0 113 66 6 c77 7
152 44 189 93 57 75 55 32 55 1113 l0 996 -24 51 c-27 59 -90 116 -145 132
-25 8 -139 12 -334 12 l-296 0 -3 358 c-3 347 -4 358 -25 392 -38 61 -64 70
-213 70 l-132 0 6 23 c3 13 22 104 41 202 40 196 40 237 2 318 -13 28 -169
217 -387 469 -201 232 -373 430 -382 440 -22 22 -52 23 -72 2z m147 -1213 c74
-17 110 -71 123 -179 l7 -62 -142 0 c-77 0 -141 3 -141 8 0 4 -7 52 -15 107
-21 147 -27 135 58 135 39 0 89 -4 110 -9z m-628 -458 c14 -65 31 -132 36
-150 52 -168 282 -221 406 -93 66 68 79 132 60 293 l-9 67 509 0 c383 0 512
-3 521 -12 9 -9 12 -102 12 -355 l0 -343 -995 0 -995 0 0 343 c0 253 3 346 12
355 9 9 70 12 214 12 l202 0 27 -117z m2271 -729 c15 -11 37 -33 48 -48 21
-27 21 -35 24 -1007 2 -953 2 -981 -17 -1024 -12 -27 -33 -52 -53 -65 -33 -20
-44 -20 -1726 -20 -1886 0 -1738 -6 -1784 69 l-23 36 -3 945 c-2 520 0 969 3
998 7 59 40 106 90 128 25 11 331 13 1722 11 1691 -2 1692 -2 1719 -23z
m-2866 -2277 c0 -2 -22 -53 -49 -113 l-49 -109 -131 -3 -131 -3 0 116 0 115
180 0 c99 0 180 -1 180 -3z m2206 -109 l51 -113 -564 -3 c-311 -1 -815 -1
-1122 0 l-558 3 51 112 51 112 1021 1 1020 0 50 -112z m424 -3 l0 -116 -130 3
-131 3 -43 95 c-23 52 -45 103 -49 113 -6 16 6 17 173 17 l180 0 0 -115z"/>
<path d="M2796 3358 c-12 -17 -16 -49 -16 -127 l0 -105 -28 27 c-15 15 -38 27
-49 27 -26 0 -53 -25 -53 -48 0 -26 161 -182 187 -182 48 0 53 18 53 211 0
105 -4 188 -10 200 -15 27 -64 25 -84 -3z"/>
<path d="M610 2367 c-85 -45 -80 1 -80 -788 l0 -696 23 -34 c12 -19 38 -42 57
-52 33 -16 117 -17 1437 -15 l1402 3 28 21 c57 43 68 76 71 222 4 147 -6 182
-53 182 -48 0 -55 -20 -55 -165 0 -130 -1 -135 -23 -150 -21 -14 -176 -15
-1391 -13 -1341 3 -1368 3 -1382 22 -12 17 -14 126 -14 682 0 589 2 664 16
678 14 14 154 16 1394 16 1353 0 1379 0 1390 -19 6 -13 10 -148 10 -370 0
-304 2 -352 16 -365 23 -24 61 -20 79 8 14 21 16 70 13 382 -3 410 -3 409 -88
452 l-44 22 -1382 0 -1381 0 -43 -23z"/>
<path d="M1050 1872 c-19 -10 -45 -34 -57 -52 -22 -31 -23 -42 -23 -234 0
-183 2 -204 20 -234 35 -57 72 -72 180 -72 116 0 153 16 188 81 22 42 23 51
20 236 -3 210 -5 218 -72 267 -40 31 -205 36 -256 8z m201 -92 c18 -10 19 -23
19 -193 0 -129 -4 -187 -12 -195 -7 -7 -41 -12 -84 -12 -106 0 -104 -4 -104
205 0 168 1 174 22 189 26 18 129 22 159 6z"/>
<path d="M1575 1876 c-42 -18 -83 -69 -91 -112 -10 -54 1 -133 23 -162 44 -59
66 -67 179 -67 l104 0 0 -66 c0 -37 -5 -70 -12 -77 -8 -8 -53 -12 -138 -12
-110 0 -129 -2 -143 -18 -21 -23 -22 -46 -1 -66 13 -13 42 -16 156 -16 159 0
192 11 222 74 24 50 23 402 0 452 -29 61 -66 79 -174 82 -64 1 -105 -2 -125
-12z m193 -102 c18 -12 22 -25 22 -63 0 -30 -6 -53 -14 -60 -9 -8 -45 -11 -98
-9 l-83 3 -3 60 c-3 47 0 62 14 72 25 19 134 17 162 -3z"/>
<path d="M2254 1866 c-68 -42 -74 -65 -74 -288 0 -175 2 -196 20 -226 35 -58
72 -72 186 -72 88 0 105 3 134 23 65 44 71 68 68 289 -3 180 -5 199 -24 224
-43 59 -68 69 -172 72 -89 3 -100 1 -138 -22z m216 -96 c18 -18 20 -33 20
-183 0 -206 -1 -207 -105 -207 -107 0 -105 -4 -105 201 0 206 2 209 105 209
52 0 69 -4 85 -20z"/>
<path d="M2785 1876 c-39 -17 -64 -46 -81 -93 -16 -46 -19 -339 -4 -393 5 -20
26 -51 45 -70 l36 -35 119 0 120 0 37 38 38 37 3 213 c3 208 3 213 -20 247
-36 53 -78 70 -178 70 -48 -1 -98 -7 -115 -14z m197 -103 c16 -14 18 -34 18
-193 0 -123 -4 -180 -12 -188 -16 -16 -160 -16 -176 0 -8 8 -12 65 -12 189 0
148 3 180 16 193 22 23 141 22 166 -1z"/>
<path d="M1993 1714 c-15 -24 -15 -29 -2 -53 27 -49 99 -32 99 23 0 28 -29 56
-58 56 -12 0 -29 -11 -39 -26z"/>
<path d="M1994 1515 c-32 -49 11 -110 62 -86 50 23 34 111 -21 111 -15 0 -31
-10 -41 -25z"/>
<path d="M3456 1394 c-33 -32 -8 -84 39 -84 15 0 31 10 41 25 15 23 15 27 0
50 -19 29 -56 33 -80 9z"/>
<path d="M4005 4734 c-211 -47 -410 -183 -529 -363 -89 -133 -133 -267 -143
-428 -12 -196 37 -371 148 -535 l39 -57 -70 -177 c-66 -167 -69 -178 -55 -201
9 -12 24 -23 35 -23 10 0 106 34 212 76 214 84 180 80 323 39 385 -112 816 83
995 450 67 137 85 218 84 380 -1 165 -20 248 -85 380 -52 106 -79 132 -117
119 -42 -15 -39 -48 13 -146 64 -120 87 -215 87 -358 0 -95 -4 -130 -26 -205
-79 -266 -285 -462 -553 -526 -125 -30 -295 -24 -403 15 -119 44 -119 44 -283
-23 -82 -33 -147 -55 -144 -48 45 112 97 252 97 262 0 8 -24 48 -54 89 -111
154 -161 353 -136 535 68 500 581 794 1045 600 38 -16 77 -29 86 -29 25 0 41
25 37 57 -2 23 -14 33 -68 60 -100 49 -178 66 -330 69 -95 3 -155 -1 -205 -12z"/>
<path d="M4690 4530 c-24 -24 -24 -29 -4 -58 28 -40 93 -20 94 29 0 20 -31 49
-53 49 -9 0 -26 -9 -37 -20z"/>
<path d="M4078 4364 c-77 -18 -150 -56 -204 -106 -46 -43 -53 -62 -31 -92 21
-28 62 -23 104 14 160 140 419 108 548 -68 48 -66 69 -132 68 -222 -1 -147
-84 -275 -215 -336 -57 -26 -73 -29 -163 -29 -113 1 -159 16 -233 79 -49 40
-80 45 -107 16 -27 -30 -12 -61 52 -109 111 -83 226 -113 359 -94 240 35 415
233 414 472 -1 146 -40 242 -139 342 -123 123 -292 173 -453 133z"/>
<path d="M4156 4154 c-31 -31 -19 -63 51 -135 l66 -69 -221 0 c-209 0 -223 -1
-242 -20 -24 -24 -25 -38 -4 -68 15 -22 19 -22 247 -22 l231 0 -72 -73 c-73
-73 -88 -107 -60 -135 31 -31 60 -13 185 110 104 103 123 127 123 152 0 26
-20 50 -124 153 -125 125 -149 139 -180 107z"/>
<path d="M1344 4015 c-15 -23 -15 -27 0 -50 29 -44 86 -28 86 25 0 53 -57 69
-86 25z"/>
<path d="M4403 2792 c-7 -4 -22 -38 -33 -74 -26 -83 -59 -124 -127 -154 -28
-13 -56 -31 -61 -41 -15 -28 3 -60 42 -73 84 -27 129 -82 156 -188 12 -47 41
-67 73 -50 18 9 22 17 52 102 23 64 58 102 125 134 48 24 55 31 55 57 0 27 -7
33 -62 61 -76 38 -96 61 -124 144 -12 36 -26 71 -32 78 -11 13 -45 16 -64 4z
m102 -279 c11 -4 5 -15 -25 -45 -22 -22 -40 -45 -40 -50 0 -6 -20 12 -44 38
l-43 49 41 46 41 46 28 -39 c15 -21 34 -41 42 -45z"/>
</g>
</svg>
